<svg width="25" height="25" viewBox="0 0 25 25" fill="none" xmlns="http://www.w3.org/2000/svg">
    <path
        d="M12.4972 17C14.9825 17 16.9972 14.9853 16.9972 12.5C16.9972 10.0147 14.9825 8 12.4972 8C10.0119 8 7.99719 10.0147 7.99719 12.5C7.99719 14.9853 10.0119 17 12.4972 17Z"
        stroke="#5A5A5F" stroke-width="2" stroke-linecap="round" stroke-linejoin="round" />
    <path
        d="M17.7195 6.60156C17.957 6.82031 18.182 7.04531 18.3945 7.27656L20.9538 7.64219C21.3708 8.36641 21.6923 9.14161 21.9101 9.94844L20.3538 12.0203C20.3538 12.0203 20.382 12.6578 20.3538 12.9766L21.9101 15.0484C21.6933 15.8556 21.3718 16.6309 20.9538 17.3547L18.3945 17.7203C18.3945 17.7203 17.9538 18.1797 17.7195 18.3953L17.3538 20.9547C16.6296 21.3717 15.8544 21.6931 15.0476 21.9109L12.9757 20.3547C12.6576 20.3828 12.3376 20.3828 12.0195 20.3547L9.94758 21.9109C9.14042 21.6941 8.36509 21.3727 7.64133 20.9547L7.27571 18.3953C7.04446 18.1766 6.81946 17.9516 6.60071 17.7203L4.04133 17.3547C3.62432 16.6305 3.30289 15.8553 3.08508 15.0484L4.64133 12.9766C4.64133 12.9766 4.61321 12.3391 4.64133 12.0203L3.08508 9.94844C3.30188 9.14127 3.62336 8.36594 4.04133 7.64219L6.60071 7.27656C6.81946 7.04531 7.04446 6.82031 7.27571 6.60156L7.64133 4.04219C8.36556 3.62517 9.14076 3.30375 9.94758 3.08594L12.0195 4.64219C12.3376 4.61406 12.6576 4.61406 12.9757 4.64219L15.0476 3.08594C15.8547 3.30274 16.6301 3.62421 17.3538 4.04219L17.7195 6.60156Z"
        stroke="#5A5A5F" stroke-width="2" stroke-linecap="round" stroke-linejoin="round" />
</svg>